# xmcd
# 
# Track frame offsets:
#     150
#     13000
#     22705
#     33957
#     45520
#     56030
#     64517
#     75367
#     87817
#     99492
#     109962
#     120552
#     130397
#     141657
#     152960
#     163550
#     174600
#     185130
#     196112
#     208360
#     219740
#     232850
#     246475
#     257222
#     267575
# 
# Disc length: 3711
# 
# Revision: 4
# Processed by: cddbd v1.5.2PL0 Copyright (c) Steve Scherf et al.
# Submitted via: fre:ac v1.1beta1pre5
# 
DISCID=680e7d19
DTITLE=Susan Raye - L.A. International Airport - 25 Great Songs
DYEAR=1993
DGENRE=Country
TTITLE0=L. A. International Airport
TTITLE1=Heartbreak Mountain
TTITLE2=Willy Jones
TTITLE3=Happy Times Are Here Again
TTITLE4=Pitty, Pitty, Patter
TTITLE5=I've Got A Happy Heart
TTITLE6=Cajun Train
TTITLE7=Cheating Game
TTITLE8=When You Get Back From Nashville
TTITLE9=The Biggest Storm Of All
TTITLE10=Whatcha Gonna Do With A Dog Like That
TTITLE11=Sick And Tired
TTITLE12=Ghost Story
TTITLE13=Plastic Trains, Paper Planes
TTITLE14=Before You Go
TTITLE15=Wheel Of Fortune
TTITLE16=Stop The World (And Let Me Off)
TTITLE17=My Heart Has A Mind Of Its Own
TTITLE18=It's Too Late To Keep From Losing You
TTITLE19=Alone Once Again
TTITLE20=Love Sure Feels Good In My Heart
TTITLE21=Precious Memories
TTITLE22=One Night Stand
TTITLE23=Put A Little Love In Your Heart
TTITLE24=Maybe If I Close My Eyes (It'll Go Away)
EXTD=YEAR: 1993
EXTT0=
EXTT1=
EXTT2=
EXTT3=
EXTT4=
EXTT5=
EXTT6=
EXTT7=
EXTT8=
EXTT9=
EXTT10=
EXTT11=
EXTT12=
EXTT13=
EXTT14=
EXTT15=
EXTT16=
EXTT17=
EXTT18=
EXTT19=
EXTT20=
EXTT21=
EXTT22=
EXTT23=
EXTT24=
PLAYORDER=
